<?xml version="1.0" standalone="no"?>
<!DOCTYPE svg PUBLIC "-//W3C//DTD SVG 20010904//EN"
 "http://www.w3.org/TR/2001/REC-SVG-20010904/DTD/svg10.dtd">
<svg version="1.0" xmlns="http://www.w3.org/2000/svg"
 width="606.000000pt" height="606.000000pt" viewBox="0 0 606.000000 606.000000"
 preserveAspectRatio="xMidYMid meet">

<g transform="translate(0.000000,606.000000) scale(0.100000,-0.100000)"
fill="#FCFCFC" stroke="none">
<path d="M1527 4904 c-4 -4 -7 -452 -7 -996 l0 -988 390 0 389 0 10 -37 c13
-47 101 -413 233 -958 22 -93 50 -208 62 -255 l21 -85 121 -3 c119 -3 122 -2
127 20 2 13 99 345 215 738 115 393 213 734 217 758 4 23 11 42 16 42 11 0 11
-2 29 -80 6 -30 27 -107 45 -170 18 -63 72 -254 120 -425 48 -170 124 -438
169 -595 l81 -285 120 0 120 0 41 165 c54 216 285 1168 364 1500 23 96 50 206
60 243 13 51 15 70 6 73 -7 3 -66 3 -131 2 l-120 -3 -11 -50 c-18 -75 -131
-574 -159 -700 -14 -60 -45 -198 -70 -305 -43 -186 -68 -307 -96 -467 -7 -40
-15 -73 -18 -73 -4 0 -15 37 -25 83 -10 45 -27 114 -37 152 -15 56 -193 699
-352 1275 l-24 85 -111 3 c-62 1 -112 0 -112 -3 0 -3 -20 -74 -44 -158 -134
-463 -351 -1237 -373 -1330 -14 -60 -29 -105 -33 -100 -4 4 -15 60 -25 123 -9
63 -32 183 -52 265 -19 83 -46 200 -60 260 -14 61 -34 145 -44 189 -10 43 -19
85 -19 92 0 11 20 14 85 14 l85 0 0 105 0 104 -112 3 -112 3 -28 120 c-16 66
-37 160 -48 209 -12 49 -23 93 -26 98 -3 4 -61 8 -130 8 -112 0 -124 -2 -124
-17 1 -10 22 -106 49 -213 26 -107 45 -198 41 -203 -3 -4 -105 -6 -226 -5
l-219 3 -5 885 -5 885 -126 3 c-69 1 -128 -1 -132 -4z"/>
</g>
</svg>
